<svg width="186" height="144" viewBox="0 0 186 144" fill="none" xmlns="http://www.w3.org/2000/svg">
<path d="M23.9067 30.752V2.19812H184.188V104.176H161.728V118.963H184.188V141.908H23.9067V51.1476C23.9067 51.1476 126.172 56.2806 147.946 51.1476C155.698 49.32 161.728 22.0001 147.946 30.752C129.602 42.4006 23.9067 30.752 23.9067 30.752Z" fill="#FF8642" stroke="black" stroke-width="3"/>
<circle cx="2.57135" cy="2.57135" r="2.57135" transform="matrix(-1 0 0 1 123.332 13.3407)" fill="black"/>
<circle cx="2.57135" cy="2.57135" r="2.57135" transform="matrix(-1 0 0 1 50.4775 13.3407)" fill="black"/>
<path d="M82.3148 97.5001L20.0001 106C-10.7191 46.3001 89.4998 29.5354 126 53C107.5 54 91.5344 50.8715 76.0003 61.5001C63.0943 70.3305 76.3495 88.5653 82.3148 97.5001Z" fill="white" stroke="black" stroke-width="3"/>
</svg>
