<svg width="323" height="169" viewBox="0 0 323 169" fill="none" xmlns="http://www.w3.org/2000/svg">
<path d="M287.471 122.549L276.05 136.435L281.995 141.085L287.471 135.07L302.727 146.378L307.134 141.025L292.119 129.657L298.794 122.08L314.265 133.761L318.952 128.679L303.71 116.387L307.995 111.635L301.465 106.428L291.248 118.226C277.019 104.598 263.32 89.6725 249.974 88.5149C242.914 76.3036 221.993 72.8249 218.124 77.6494L218.044 88.2741C225.265 79.236 236.895 84.0109 242.813 89.5865C237.18 92.4998 228.719 99.5461 229.895 108.904C230.73 115.552 241.544 124.751 250.797 114.937C254.145 111.386 255.449 107.819 253.231 97.0733C267.165 100.408 279.048 114.569 287.471 122.549Z" fill="#DCEDFF"/>
<path d="M245.308 97.5245C248.383 96.2704 250.124 96.3299 253.231 97.0733M245.308 97.5245C241.969 99.8836 235.197 108.944 240.879 108.987C245.221 109.019 245.694 102.807 245.308 97.5245ZM287.471 135.07L281.995 141.085L276.05 136.435L287.471 122.549C279.048 114.569 267.165 100.408 253.231 97.0733M287.471 135.07L302.727 146.378L307.134 141.025L292.119 129.657M287.471 135.07L292.119 129.657M292.119 129.657L298.794 122.08M303.71 116.387L307.995 111.635L301.465 106.428L291.248 118.226C277.019 104.598 263.32 89.6725 249.974 88.5149M303.71 116.387L318.952 128.679L314.265 133.761L298.794 122.08M303.71 116.387L298.794 122.08M253.231 97.0733C255.449 107.819 254.145 111.386 250.797 114.937C241.544 124.751 230.73 115.552 229.895 108.904C228.719 99.5461 237.18 92.4998 242.813 89.5865M242.813 89.5865C236.895 84.0109 225.265 79.2359 218.044 88.2741L218.124 77.6494C221.993 72.8249 242.914 76.3036 249.974 88.5149M242.813 89.5865C245.475 88.2809 247.045 88.2609 249.974 88.5149" stroke="black" stroke-width="3"/>
<path d="M246.445 97.1494C242.121 98.2483 235.848 107.529 240.286 109.504C244.724 111.479 249.225 102.268 246.445 97.1494Z" fill="#DCEDFF" stroke="black" stroke-width="3"/>
<path d="M217 140V22.125H169.608V2L52.0896 2V22.125H2V59.0469C2 59.0469 87.9729 85.996 165.369 64.0469C183 59.0469 177 85 165.369 92.9908C147.154 105.506 2 92.9908 2 92.9908V140H217Z" fill="#FF8D7C" stroke="black" stroke-width="3"/>
<ellipse cx="59.9933" cy="9.34963" rx="3.01516" ry="2.82124" transform="rotate(-0.271659 59.9933 9.34963)" fill="black"/>
<ellipse cx="116.829" cy="9.08016" rx="3.01516" ry="2.82124" transform="rotate(-0.271659 116.829 9.08016)" fill="black"/>
</svg>
