<svg width="220" height="163" viewBox="0 0 220 163" fill="none" xmlns="http://www.w3.org/2000/svg">
<path d="M70 2H183.894V10.196H202.981L207.049 37.3059H214.245L218 61.2635H195.471V37.3059H183.894V143.224H137.629V161H99.404V143.224H70V110.755C70 110.755 112.519 116.983 133.205 110.755C160.427 102.559 175.446 25.3271 133.205 37.3059C113.326 42.9431 70 37.3059 70 37.3059V2Z" fill="#FFC554"/>
<path d="M183.894 10.196V2H70V37.3059C70 37.3059 113.326 42.9431 133.205 37.3059C175.446 25.3271 160.427 102.559 133.205 110.755C112.519 116.983 70 110.755 70 110.755V143.224H99.404M183.894 10.196H202.981L207.049 37.3059M183.894 10.196V37.3059M207.049 37.3059H214.245L218 61.2635H195.471V37.3059M207.049 37.3059H195.471M183.894 37.3059H195.471M183.894 37.3059V143.224H137.629M137.629 143.224V161H99.404V143.224M137.629 143.224H99.404" stroke="black" stroke-width="3"/>
<circle cx="2.44935" cy="2.44935" r="2.44935" transform="matrix(-1 0 0 1 136.143 9.73853)" fill="black"/>
<circle cx="2.44935" cy="2.44935" r="2.44935" transform="matrix(-1 0 0 1 89.3442 9.73853)" fill="black"/>
<path d="M1.05097 107.495C11.3534 104.585 17.1533 90.7344 30.39 82.5231C44.9088 73.5164 119.5 60.9998 139 106.5C136 112 122.15 114.765 109.5 112C93.5 97.5 78.2892 84.3313 70 90C63.183 94.6619 60.2478 113.54 49.9828 116.805L1.05097 107.495Z" fill="white" stroke="black" stroke-width="3"/>
</svg>
