<svg width="186" height="116" viewBox="0 0 186 116" fill="none" xmlns="http://www.w3.org/2000/svg">
<path d="M1.63916 114.271V15.295H30.4832V1.29346H87.4188V15.295H140.341V50.1412C140.341 50.1412 127.774 56.2289 83.412 33.5368C39.0498 10.8447 72.4606 101.959 91.1811 101.959H140.341V114.271H1.63916Z" fill="#FFC554" stroke="black" stroke-width="2"/>
<path d="M46.0013 114.271V15.295H74.8454V1.29346H131.781V15.295H184.704V55.3682C184.704 55.3682 158.03 99.2619 106.087 69.7895C54.1438 40.3171 85.1203 101.959 103.841 101.959H184.704V114.271H46.0013Z" fill="#FFC554" stroke="black" stroke-width="2"/>
<path d="M12.8698 114.271V15.295H41.7138V1.29346H98.6495V15.295H151.572V55.3682C151.572 55.3682 137.533 69.5586 93.1711 46.8665C48.8088 24.1745 83.9969 103.628 102.717 103.628C119.656 103.628 151.572 101.959 151.572 101.959V114.271H12.8698Z" fill="#FFC554" stroke="black" stroke-width="2"/>
<path d="M35.332 114.271V15.295H64.176V1.29346H121.112V15.295H174.034V55.3682C174.034 55.3682 153.257 87.8004 104.964 61.8756C56.6708 35.9508 90.455 103.355 109.175 103.355C126.114 103.355 174.034 101.959 174.034 101.959V114.271H35.332Z" fill="#FFC554" stroke="black" stroke-width="2"/>
<path d="M24.1009 114.271V15.295H52.9449V1.29346H109.881V15.295H162.803V55.3682C162.803 55.3682 150.236 78.0603 105.874 55.3682C61.5115 32.6761 94.9224 101.959 113.643 101.959H162.803V114.271H24.1009Z" fill="#FFC554" stroke="black" stroke-width="2"/>
<ellipse cx="1.94659" cy="1.89196" rx="1.94659" ry="1.89196" transform="matrix(-1 0 0 1 105.47 6.3833)" fill="black"/>
<ellipse cx="1.94659" cy="1.89196" rx="1.94659" ry="1.89196" transform="matrix(-1 0 0 1 68.776 6.3833)" fill="black"/>
</svg>
