<svg width="154" height="301" viewBox="0 0 154 301" fill="none" xmlns="http://www.w3.org/2000/svg">
<path d="M66.7043 192.879C57.9643 199.779 48.9262 222.28 52.2096 240.949C56.0001 262.5 75.5002 259 75.5002 300" stroke="black" stroke-width="1.37999"/>
<path d="M114.011 51.1396C118.06 93.4622 165.739 129.401 146.5 175C114.011 252 160.259 243 143 300" stroke="black" stroke-width="1.37999"/>
<path d="M63.7572 164.72L73.6209 167.457L72.1552 124.494L92.8278 136.843L80.6972 169.421L87.7736 171.385L109.801 148.198L120.264 168.77L85.0431 176.339L113.241 202.136L95.4498 215.424L82.3126 181.294L76.8517 191.202L89.6678 222.373L61.9237 216.879L67.2013 191.848L47.7463 209.485L33.6318 202.681L48.8235 183.034L20.1062 197.304L24.8887 162.329L47.2127 175.349L35.279 143.135L49.4775 137.835L53.3404 169.439L55.0476 146.702L64.6783 134.62L63.7572 164.72Z" fill="#FF8D7C"/>
<path d="M87.7736 171.385L80.6972 169.421M87.7736 171.385L85.0431 176.339M87.7736 171.385L109.801 148.198L120.264 168.77L85.0431 176.339M73.6209 167.457L59.4682 163.529L53.3404 169.439M73.6209 167.457L72.1552 124.494L92.8278 136.843L80.6972 169.421M73.6209 167.457L80.6972 169.421M85.0431 176.339L113.241 202.136L95.4498 215.424L82.3126 181.294M85.0431 176.339L82.3126 181.294M82.3126 181.294L76.8517 191.202M76.8517 191.202L74.5524 195.374L67.2013 191.848M76.8517 191.202L89.6678 222.373L61.9237 216.879L67.2013 191.848M67.2013 191.848L47.7463 209.485L33.6318 202.681L48.8235 183.034M67.2013 191.848L48.8235 183.034M48.8235 183.034L42.4253 179.966L47.2127 175.349M48.8235 183.034L20.1062 197.304L24.8887 162.329L47.2127 175.349M47.2127 175.349L35.279 143.135L49.4775 137.835L53.3404 169.439M47.2127 175.349L53.3404 169.439M53.3404 169.439L55.0476 146.702L64.6783 134.62L63.7499 164.96" stroke="black" stroke-width="1.37999"/>
<path d="M108.897 33.7274L114.079 29.0035L88.6239 14.1991L103.319 6.70772L117.796 25.6145L121.514 22.2256L116.09 1L131.836 2.42693L123.392 25.6145L148.63 18.6583L149.855 33.8194L125.271 29.0035L129.029 35.7814L151.779 39.7055L138.483 53.7964L125.887 41.6146L129.029 59.3258L119.939 65.0335L114.079 49.0629L111.892 70.9196L93.3475 55.4017L109.034 47.1968L85.9998 42.381L88.0991 32.2141L107.838 41.4891L95.2719 32.2141L91.773 22.2256L108.897 33.7274Z" fill="#FF8D7C"/>
<path d="M121.514 22.2256L117.796 25.6145M121.514 22.2256L123.392 25.6145M121.514 22.2256L116.09 1L131.836 2.42693L123.392 25.6145M114.079 29.0035L106.643 35.7814L107.838 41.4891M114.079 29.0035L88.6239 14.1991L103.319 6.70772L117.796 25.6145M114.079 29.0035L117.796 25.6145M123.392 25.6145L148.63 18.6583L149.855 33.8194L125.271 29.0035M123.392 25.6145L125.271 29.0035M125.271 29.0035L129.029 35.7814M129.029 35.7814L130.611 38.6353L125.887 41.6146M129.029 35.7814L151.779 39.7055L138.483 53.7964L125.887 41.6146M125.887 41.6146L129.029 59.3258L119.939 65.0335L114.079 49.0629M125.887 41.6146L114.079 49.0629M114.079 49.0629L109.967 51.656L109.034 47.1969M114.079 49.0629L111.892 70.9196L93.3475 55.4017L109.034 47.1969M109.034 47.1969L85.9998 42.381L88.0991 32.2141L107.838 41.4891M109.034 47.1969L107.838 41.4891M107.838 41.4891L95.2719 32.2141L91.773 22.2256L109.034 33.8194" stroke="black" stroke-width="1.37999"/>
</svg>
