<svg width="136" height="513" viewBox="0 0 136 513" fill="none" xmlns="http://www.w3.org/2000/svg">
<path d="M109.414 512.642C121.522 436.657 129.454 423.714 119.434 411.189C109.414 398.664 103.151 424.131 103.986 369.438C104.654 325.684 107.883 317.25 109.414 318.503" stroke="black" stroke-width="2"/>
<path d="M100.99 310.053L99.3401 304.061L77.4627 318.349L77.4424 303.708L98.1567 299.762L96.9733 295.463L78.0579 291.305L85.4927 279.386L100.399 295.323L105.026 272.535L117.475 277.606L103.825 295.184L110.677 294.905L122.889 278.425L128.676 294.586L114.019 299.721L129.248 304.288L130.108 313.772L115.162 312.055L131.526 322.5L111.855 331.023L111.669 315.313L98.6403 331.661L91.4621 325.945L106.688 313.986L94.3364 320.256L85.0556 319.05L100.99 310.053Z" fill="#FF8D7C"/>
<path d="M96.9733 295.463L98.1567 299.762M96.9733 295.463L100.399 295.323M96.9733 295.463L78.0579 291.305L85.4927 279.386L100.399 295.323M99.3401 304.061L101.707 312.659L106.688 313.986M99.3401 304.061L77.4627 318.349L77.4424 303.708L98.1567 299.762M99.3401 304.061L98.1567 299.762M100.399 295.323L105.026 272.535L117.475 277.606L103.825 295.184M100.399 295.323L103.825 295.184M103.825 295.184L110.677 294.905M110.677 294.905L113.562 294.788L114.019 299.721M110.677 294.905L122.889 278.425L128.676 294.586L114.019 299.721M114.019 299.721L129.248 304.288L130.108 313.772L115.162 312.055M114.019 299.721L115.162 312.055M115.162 312.055L115.56 316.349L111.669 315.313M115.162 312.055L131.526 322.5L111.855 331.023L111.669 315.313M111.669 315.313L98.6403 331.661L91.4621 325.945L106.688 313.986M111.669 315.313L106.688 313.986M106.688 313.986L94.3364 320.256L85.0556 319.05L101.117 309.981" stroke="black" stroke-width="2"/>
<path d="M71.0637 32.5951L77.0459 34.2815L76.1277 8.16783L88.6699 15.7203L81.3376 35.4914L85.6292 36.7012L98.9684 22.6603L105.326 35.1868L83.9772 39.7058L101.091 55.4485L90.3135 63.4827L82.3251 42.7104L79.021 48.7196L86.8127 67.693L69.9879 64.2903L73.1705 49.0902L61.3872 59.7641L52.8251 55.5965L62.0221 43.6913L44.6209 52.2973L47.4965 31.0529L61.0402 39.0168L53.7828 19.4116L62.3876 16.2233L64.7514 35.4393L65.7708 21.6249L71.6015 14.3044L71.0637 32.5951Z" fill="#FF8D7C"/>
<path d="M85.6292 36.7012L81.3375 35.4914M85.6292 36.7012L83.9772 39.7058M85.6292 36.7012L98.9684 22.6603L105.326 35.1868L83.9772 39.7058M77.0459 34.2815L68.4625 31.8618L64.7514 35.4393M77.0459 34.2815L76.1277 8.16782L88.6699 15.7203L81.3375 35.4914M77.0459 34.2815L81.3375 35.4914M83.9772 39.7058L101.091 55.4485L90.3135 63.4827L82.3251 42.7104M83.9772 39.7058L82.3251 42.7104M82.3251 42.7104L79.021 48.7196M79.021 48.7196L77.6298 51.2497L73.1705 49.0902M79.021 48.7196L86.8127 67.693L69.9879 64.2903L73.1705 49.0902M73.1705 49.0902L61.3872 59.7641L52.8251 55.5965L62.0221 43.6913M73.1705 49.0902L62.0221 43.6913M62.0221 43.6913L58.1409 41.8117L61.0402 39.0168M62.0221 43.6913L44.6209 52.2973L47.4965 31.0529L61.0402 39.0168M61.0402 39.0168L53.7828 19.4116L62.3876 16.2233L64.7514 35.4393M61.0402 39.0168L64.7514 35.4393M64.7514 35.4393L65.7708 21.6249L71.6015 14.3044L71.0594 32.7415" stroke="black" stroke-width="2"/>
<path d="M61.6343 427.524C61.6343 420.427 16.1263 317.721 33.6615 276.805M33.6615 276.805C51.1967 235.89 92.9471 185.372 87.1021 144.039C81.257 102.706 61.6343 103.541 63.7218 89.3457C65.3919 77.9896 69.4277 59.2854 71.2369 51.3528M33.6615 276.805C28.7906 272.63 19.3829 261.274 20.7189 249.25C22.0549 237.226 27.3989 224.756 29.9039 220.025" stroke="black" stroke-width="2"/>
<path d="M24.947 205.75L30.1141 202.296L9.65935 186.037L23.5473 181.403L33.8211 199.818L37.5281 197.34L35.5126 178.078L49.1671 181.378L38.7401 200.548L61.8252 197.756L60.9362 211.169L39.9522 203.755L42.3763 210.17L61.8647 216.566L48.3514 227.151L38.8589 214.86L39.3242 230.752L30.5949 234.557L27.5138 219.832L22.7583 238.653L8.47005 222.671L23.3213 217.543L3.69951 210.331L6.86272 201.717L23.0107 212.398L13.1674 202.652L11.3868 193.464L24.947 205.75Z" fill="#FF8D7C"/>
<path d="M37.5281 197.34L33.8211 199.818M37.5281 197.34L38.7401 200.548M37.5281 197.34L35.5126 178.078L49.1671 181.378L38.7401 200.548M30.1141 202.296L22.7001 207.252L23.0107 212.398M30.1141 202.296L9.65935 186.037L23.5473 181.403L33.8211 199.818M30.1141 202.296L33.8211 199.818M38.7401 200.548L61.8252 197.756L60.9362 211.169L39.9522 203.755M38.7401 200.548L39.9522 203.755M39.9522 203.755L42.3763 210.17M42.3763 210.17L43.397 212.871L38.8589 214.86M42.3763 210.17L61.8647 216.566L48.3514 227.151L38.8589 214.86M38.8589 214.86L39.3242 230.752L30.5949 234.557L27.5138 219.832M38.8589 214.86L27.5138 219.832M27.5138 219.832L23.564 221.563L23.3213 217.543M27.5138 219.832L22.7583 238.653L8.47005 222.671L23.3213 217.543M23.3213 217.543L3.69951 210.331L6.86272 201.717L23.0107 212.398M23.3213 217.543L23.0107 212.398M23.0107 212.398L13.1674 202.652L11.3868 193.464L25.0555 205.849" stroke="black" stroke-width="2"/>
</svg>
