<svg width="459" height="744" viewBox="0 0 459 744" fill="none" xmlns="http://www.w3.org/2000/svg">
<path d="M231.001 325C212.001 340 187.574 390.053 199.491 429.5C213.99 477.5 270.49 480.5 280.49 558.5C288.49 620.9 283.824 703.167 280.49 725" stroke="black" stroke-width="3"/>
<path d="M373.885 111C374.217 149.931 377.801 191.411 382.99 213C389.476 239.986 407.812 276.014 404.818 318.926C401.825 361.839 356.505 396.829 363.49 480C370.475 563.171 390.198 539.387 389.351 595.509C388.572 647.198 389.49 719.191 389.49 724.5" stroke="black" stroke-width="3"/>
<path d="M224.595 263.782L246.038 269.734L242.851 176.335L287.792 203.18L261.421 274.003L276.804 278.273L324.691 227.866L347.436 272.588L270.869 289.043L332.169 345.124L293.492 374.009L264.933 299.813L253.061 321.353L280.922 389.118L220.609 377.174L232.082 322.759L189.788 361.1L159.104 346.308L192.13 303.597L129.7 334.618L140.097 258.586L188.628 286.889L162.685 216.858L193.552 205.337L201.949 274.042L205.661 224.613L226.597 198.347L224.595 263.782Z" fill="#FF8D7C"/>
<path d="M276.804 278.273L261.421 274.003M276.804 278.273L270.869 289.043M276.804 278.273L324.691 227.866L347.436 272.588L270.869 289.043M246.038 269.734L215.271 261.195L201.949 274.042M246.038 269.734L242.851 176.335L287.792 203.18L261.421 274.003M246.038 269.734L261.421 274.003M270.869 289.043L332.169 345.124L293.492 374.009L264.933 299.813M270.869 289.043L264.933 299.813M264.933 299.813L253.061 321.353M253.061 321.353L248.063 330.423L232.082 322.759M253.061 321.353L280.922 389.118L220.609 377.174L232.082 322.759M232.082 322.759L189.788 361.1L159.104 346.308L192.13 303.597M232.082 322.759L192.13 303.597M192.13 303.597L178.221 296.927L188.628 286.889M192.13 303.597L129.7 334.618L140.097 258.586L188.628 286.889M188.628 286.889L162.685 216.858L193.552 205.337L201.949 274.042M188.628 286.889L201.949 274.042M201.949 274.042L205.661 224.613L226.597 198.347L224.579 264.306" stroke="black" stroke-width="3"/>
<path d="M362.766 73.1469L374.032 62.8775L318.695 30.6939L350.642 14.4082L382.113 55.5102L390.195 48.1429L378.405 2L412.634 5.10204L394.28 55.5102L449.145 40.3878L451.807 73.3469L398.364 62.8775L406.532 77.6122L455.99 86.1429L427.086 116.776L399.703 90.2931L406.532 128.796L386.772 141.204L374.032 106.485L369.278 154L328.964 120.265L363.064 102.429L312.99 91.9592L317.554 69.8571L360.466 90.0204L333.147 69.8571L325.541 48.1429L362.766 73.1469Z" fill="#FF8D7C"/>
<path d="M390.195 48.1429L382.113 55.5102M390.195 48.1429L394.28 55.5102M390.195 48.1429L378.405 2L412.634 5.10204L394.28 55.5102M374.032 62.8775L357.868 77.6122L360.466 90.0204M374.032 62.8775L318.695 30.6939L350.642 14.4082L382.113 55.5102M374.032 62.8775L382.113 55.5102M394.28 55.5102L449.145 40.3878L451.807 73.3469L398.364 62.8775M394.28 55.5102L398.364 62.8775M398.364 62.8775L406.532 77.6122M406.532 77.6122L409.972 83.8163L399.703 90.2931M406.532 77.6122L455.99 86.1429L427.086 116.776L399.703 90.2931M399.703 90.2931L406.532 128.796L386.772 141.204L374.032 106.485M399.703 90.2931L374.032 106.485M374.032 106.485L365.094 112.122L363.064 102.429M374.032 106.485L369.278 154L328.964 120.265L363.064 102.429M363.064 102.429L312.99 91.9592L317.554 69.8571L360.466 90.0204M363.064 102.429L360.466 90.0204M360.466 90.0204L333.147 69.8571L325.541 48.1429L363.064 73.3469" stroke="black" stroke-width="3"/>
<path d="M60.4439 612.554V584H220.725V685.978H198.265V700.765H220.725V723.71H60.4439V646.5C60.4439 646.5 162.709 647.633 184.483 642.5C192.235 640.672 196.444 597.5 184.483 612.554C170.965 629.567 60.4439 612.554 60.4439 612.554Z" fill="#FF8642" stroke="black" stroke-width="3"/>
<circle cx="2.57135" cy="2.57135" r="2.57135" transform="matrix(-1 0 0 1 149.869 591.143)" fill="black"/>
<circle cx="2.57135" cy="2.57135" r="2.57135" transform="matrix(-1 0 0 1 77.015 591.143)" fill="black"/>
<path d="M87.4439 694.5L28.4439 715C-6.05617 620 105.49 622.036 141.99 645.5C141.99 645.5 117.488 647.042 109.988 647.042C102.488 647.042 91.988 647.542 82.488 654.042C69.582 662.872 81.4786 685.565 87.4439 694.5Z" fill="white" stroke="black" stroke-width="3"/>
</svg>
