<svg width="393" height="266" viewBox="0 0 393 266" fill="none" xmlns="http://www.w3.org/2000/svg">
<path d="M-296 53.1655V265H676V57.125L669.925 28.4184V46.7312L662.5 53.1655L659.8 33.8628L655.75 53.1655L640.225 38.3172L645.625 53.1655L637.525 51.6806L632.125 41.7818L628.412 53.1655H622L612.888 46.7312L615.925 33.8628L603.775 46.7312L595.675 53.1655V33.8628L584.875 53.1655L581.838 42.7717L572.725 18.5196V38.3172L567.662 53.1655L548.087 24.4589L551.125 42.7717L543.362 53.1655L532.9 46.7312L529.44 18.5196L527.5 42.7717V53.1655H513.325L505.9 46.7312L510.963 28.4184L503.2 38.3172L500.5 53.1655L482.95 46.7312V2.68153L473.5 42.7717L465.4 24.4589V38.3172L459.663 46.7312L453.25 33.8628L450.888 40.7919L447.512 39.3071V46.7312L441.775 53.1655L427.262 38.3172V46.7312H417.137L406 24.4589V53.1655L393.85 64.5491L391.487 33.8628L388.787 53.1655L369.888 59.5997L363.475 18.5196V53.1655L358.075 59.5997L350.65 46.7312L346.938 53.1655L342.888 33.8628L340.188 53.1655H327.025L331.075 2.68153L321.963 46.7312L313.862 44.7197L309.812 1L292.263 46.7312L277.412 35.6395L267.287 2.68153V59.5997L250.413 53.1655H240.625V18.5196L224.762 53.1655L216.325 39.3071V59.5997L199.45 64.5491L193.375 39.3071V59.5997L168.062 64.5491L155.238 2.68153V64.5491L150.85 70.4884L130.6 59.5997L116.087 31.883L121.15 53.1655L116.087 64.5491L108.325 59.5997L97.525 64.5491L102.587 11.0955L89.0875 64.5491L78.625 53.1655L72.55 64.5491L64.7875 59.5997L58.375 46.7312L55.3375 59.5997L43.525 64.5491V39.3071L34.075 59.5997L23.95 64.5491L10.45 24.4589V46.7312L-3.38751 70.4884L-9.46249 59.5997L-22.9625 70.4884V46.7312L-29.0375 59.5997L-42.2 70.4884H-50.975L-66.8375 53.1655V31.883L-72.9125 64.5491L-90.4625 79.3973L-97.55 70.4884L-109.025 18.5196V59.5997L-135.688 84.8417L-147.837 64.5491L-154.588 79.3973L-164.038 64.5491L-168.282 82.9542L-174.5 8.62081V53.1655L-181.25 79.3973L-197.45 64.5491L-187.325 31.883L-217.363 84.8417L-231.875 46.7312V64.5491L-243.35 84.8417L-262.25 46.7312L-256.85 8.62081L-285.538 79.3973L-296 53.1655Z" fill="#DCEDFF" stroke="black" stroke-width="2"/>
</svg>
