<svg width="255" height="206" viewBox="0 0 255 206" fill="none" xmlns="http://www.w3.org/2000/svg">
<mask id="path-1-inside-1_1473_511" fill="white">
<path fill-rule="evenodd" clip-rule="evenodd" d="M188.66 10.5037C192.552 10.5037 195.708 7.07169 195.708 2.83809C195.708 1.94213 195.567 1.08207 195.307 0.282837H221.081V153.595L0.240234 153.595V0.282837H22.2555C21.9958 1.08204 21.8544 1.94208 21.8544 2.83801C21.8544 7.07162 25.01 10.5036 28.9026 10.5036C32.7951 10.5036 35.9507 7.07162 35.9507 2.83801C35.9507 1.94208 35.8093 1.08204 35.5496 0.282837L62.1947 0.282837C61.9349 1.08205 61.7936 1.9421 61.7936 2.83805C61.7936 7.07165 64.9492 10.5037 68.8417 10.5037C72.7343 10.5037 75.8898 7.07165 75.8898 2.83805C75.8898 1.9421 75.7485 1.08205 75.4888 0.282837L102.134 0.282837C101.875 1.08205 101.733 1.9421 101.733 2.83804C101.733 7.07164 104.889 10.5037 108.781 10.5037C112.674 10.5037 115.829 7.07164 115.829 2.83804C115.829 1.9421 115.688 1.08205 115.428 0.282837H142.074C141.814 1.08199 141.673 1.94196 141.673 2.83783C141.673 7.07143 144.828 10.5034 148.721 10.5034C152.613 10.5034 155.769 7.07143 155.769 2.83783C155.769 1.94196 155.628 1.08199 155.368 0.282837L182.013 0.282837C181.753 1.08207 181.612 1.94213 181.612 2.83809C181.612 7.07169 184.767 10.5037 188.66 10.5037Z"/>
</mask>
<path fill-rule="evenodd" clip-rule="evenodd" d="M188.66 10.5037C192.552 10.5037 195.708 7.07169 195.708 2.83809C195.708 1.94213 195.567 1.08207 195.307 0.282837H221.081V153.595L0.240234 153.595V0.282837H22.2555C21.9958 1.08204 21.8544 1.94208 21.8544 2.83801C21.8544 7.07162 25.01 10.5036 28.9026 10.5036C32.7951 10.5036 35.9507 7.07162 35.9507 2.83801C35.9507 1.94208 35.8093 1.08204 35.5496 0.282837L62.1947 0.282837C61.9349 1.08205 61.7936 1.9421 61.7936 2.83805C61.7936 7.07165 64.9492 10.5037 68.8417 10.5037C72.7343 10.5037 75.8898 7.07165 75.8898 2.83805C75.8898 1.9421 75.7485 1.08205 75.4888 0.282837L102.134 0.282837C101.875 1.08205 101.733 1.9421 101.733 2.83804C101.733 7.07164 104.889 10.5037 108.781 10.5037C112.674 10.5037 115.829 7.07164 115.829 2.83804C115.829 1.9421 115.688 1.08205 115.428 0.282837H142.074C141.814 1.08199 141.673 1.94196 141.673 2.83783C141.673 7.07143 144.828 10.5034 148.721 10.5034C152.613 10.5034 155.769 7.07143 155.769 2.83783C155.769 1.94196 155.628 1.08199 155.368 0.282837L182.013 0.282837C181.753 1.08207 181.612 1.94213 181.612 2.83809C181.612 7.07169 184.767 10.5037 188.66 10.5037Z" fill="#DCEDFF"/>
<path d="M195.307 0.282837V-2.71716H191.178L192.454 1.21005L195.307 0.282837ZM221.081 0.282837H224.081V-2.71716H221.081V0.282837ZM221.081 153.595V156.595H224.081V153.595H221.081ZM0.240234 153.595H-2.75977V156.595H0.240234L0.240234 153.595ZM0.240234 0.282837V-2.71716H-2.75977V0.282837H0.240234ZM22.2555 0.282837L25.1086 1.21002L26.3848 -2.71716L22.2555 -2.71716V0.282837ZM35.5496 0.282837L35.5496 -2.71716L31.4203 -2.71716L32.6965 1.21002L35.5496 0.282837ZM62.1947 0.282837L65.0478 1.21004L66.324 -2.71716L62.1947 -2.71716L62.1947 0.282837ZM75.4888 0.282837L75.4888 -2.71716L71.3594 -2.71716L72.6356 1.21004L75.4888 0.282837ZM102.134 0.282837L104.987 1.21004L106.264 -2.71716L102.134 -2.71716L102.134 0.282837ZM115.428 0.282837V-2.71716H111.299L112.575 1.21004L115.428 0.282837ZM142.074 0.282837L144.927 1.20998L146.203 -2.71716H142.074V0.282837ZM155.368 0.282837L155.368 -2.71716L151.239 -2.71716L152.515 1.20998L155.368 0.282837ZM182.013 0.282837L184.866 1.21005L186.142 -2.71716L182.013 -2.71716L182.013 0.282837ZM192.708 2.83809C192.708 5.65701 190.663 7.50371 188.66 7.50371V13.5037C194.442 13.5037 198.708 8.48638 198.708 2.83809H192.708ZM192.454 1.21005C192.617 1.71132 192.708 2.25856 192.708 2.83809H198.708C198.708 1.6257 198.517 0.452806 198.16 -0.644376L192.454 1.21005ZM195.307 3.28284H221.081V-2.71716H195.307V3.28284ZM218.081 0.282837V153.595H224.081V0.282837H218.081ZM221.081 150.595L0.240234 150.595L0.240234 156.595L221.081 156.595V150.595ZM3.24023 153.595V0.282837H-2.75977V153.595H3.24023ZM0.240234 3.28284H22.2555V-2.71716H0.240234V3.28284ZM19.4024 -0.64435C19.0458 0.452795 18.8544 1.62565 18.8544 2.83801H24.8544C24.8544 2.25851 24.9457 1.71129 25.1086 1.21002L19.4024 -0.64435ZM18.8544 2.83801C18.8544 8.4863 23.1209 13.5036 28.9026 13.5036V7.50363C26.8991 7.50363 24.8544 5.65693 24.8544 2.83801H18.8544ZM28.9026 13.5036C34.6842 13.5036 38.9507 8.4863 38.9507 2.83801H32.9507C32.9507 5.65693 30.906 7.50363 28.9026 7.50363V13.5036ZM38.9507 2.83801C38.9507 1.62564 38.7593 0.452791 38.4028 -0.64435L32.6965 1.21002C32.8594 1.71129 32.9507 2.25851 32.9507 2.83801H38.9507ZM35.5496 3.28284L62.1947 3.28284L62.1947 -2.71716L35.5496 -2.71716L35.5496 3.28284ZM59.3415 -0.644364C58.985 0.452793 58.7936 1.62566 58.7936 2.83805H64.7936C64.7936 2.25854 64.8849 1.71131 65.0478 1.21004L59.3415 -0.644364ZM58.7936 2.83805C58.7936 8.48634 63.0601 13.5037 68.8417 13.5037V7.50366C66.8382 7.50366 64.7936 5.65697 64.7936 2.83805H58.7936ZM68.8417 13.5037C74.6234 13.5037 78.8898 8.48633 78.8898 2.83805H72.8898C72.8898 5.65697 70.8452 7.50366 68.8417 7.50366V13.5037ZM78.8898 2.83805C78.8898 1.62566 78.6984 0.452793 78.3419 -0.644364L72.6356 1.21004C72.7986 1.71131 72.8898 2.25854 72.8898 2.83805H78.8898ZM75.4888 3.28284L102.134 3.28284L102.134 -2.71716L75.4888 -2.71716L75.4888 3.28284ZM99.2811 -0.644366C98.9246 0.452805 98.7332 1.62567 98.7332 2.83804H104.733C104.733 2.25852 104.824 1.7113 104.987 1.21004L99.2811 -0.644366ZM98.7332 2.83804C98.7332 8.48632 103 13.5037 108.781 13.5037V7.50366C106.778 7.50366 104.733 5.65696 104.733 2.83804H98.7332ZM108.781 13.5037C114.563 13.5037 118.829 8.48633 118.829 2.83804H112.829C112.829 5.65696 110.785 7.50366 108.781 7.50366V13.5037ZM118.829 2.83804C118.829 1.62566 118.638 0.452788 118.282 -0.644366L112.575 1.21004C112.738 1.71131 112.829 2.25853 112.829 2.83804H118.829ZM115.428 3.28284H142.074V-2.71716H115.428V3.28284ZM139.22 -0.644306C138.864 0.45279 138.673 1.62557 138.673 2.83783H144.673C144.673 2.25836 144.764 1.71119 144.927 1.20998L139.22 -0.644306ZM138.673 2.83783C138.673 8.48611 142.939 13.5034 148.721 13.5034V7.50345C146.717 7.50345 144.673 5.65675 144.673 2.83783H138.673ZM148.721 13.5034C154.502 13.5034 158.769 8.48611 158.769 2.83783H152.769C152.769 5.65675 150.724 7.50345 148.721 7.50345V13.5034ZM158.769 2.83783C158.769 1.62557 158.577 0.45279 158.221 -0.644306L152.515 1.20998C152.678 1.71119 152.769 2.25836 152.769 2.83783H158.769ZM155.368 3.28284L182.013 3.28284L182.013 -2.71716L155.368 -2.71716L155.368 3.28284ZM184.612 2.83809C184.612 2.25856 184.703 1.71132 184.866 1.21005L179.16 -0.644376C178.803 0.452806 178.612 1.6257 178.612 2.83809H184.612ZM188.66 7.50371C186.656 7.50371 184.612 5.65701 184.612 2.83809H178.612C178.612 8.48638 182.878 13.5037 188.66 13.5037V7.50371Z" fill="black" mask="url(#path-1-inside-1_1473_511)"/>
<path d="M202.224 146.977L209.253 149.424L210.038 118.141L224.487 128.073L214.297 151.179L219.34 152.935L236.298 137.111L242.995 152.544L217.148 156.408L236.472 176.46L223.009 185.288L214.957 159.88L210.574 166.826L218.521 190.069L198.653 184.788L203.553 166.847L188.698 178.758L178.763 173.159L190.616 159.59L169.194 168.623L174.162 143.435L189.779 153.931L182.516 129.971L193.032 126.78L194.473 149.922L196.687 133.481L204.185 125.15L202.224 146.977Z" fill="#FF8D7C"/>
<path d="M219.34 152.935L214.297 151.179M219.34 152.935L217.148 156.408M219.34 152.935L236.298 137.111L242.995 152.544L217.148 156.408M209.253 149.424L199.167 145.913L194.473 149.922M209.253 149.424L210.038 118.141L224.487 128.073L214.297 151.179M209.253 149.424L214.297 151.179M217.148 156.408L236.472 176.46L223.009 185.288L214.957 159.88M217.148 156.408L214.957 159.88M214.957 159.88L210.574 166.826M210.574 166.826L208.729 169.75L203.553 166.847M210.574 166.826L218.521 190.068L198.653 184.788L203.553 166.847M203.553 166.847L188.698 178.758L178.763 173.159L190.616 159.59M203.553 166.847L190.616 159.59M190.616 159.59L186.111 157.063L189.779 153.931M190.616 159.59L169.194 168.623L174.162 143.435L189.779 153.931M189.779 153.931L182.516 129.971L193.032 126.78L194.473 149.922M189.779 153.931L194.473 149.922M194.473 149.922L196.687 133.481L204.185 125.15L202.208 147.151" stroke="black" stroke-width="3"/>
</svg>
