<svg width="118" height="101" viewBox="0 0 118 101" fill="none" xmlns="http://www.w3.org/2000/svg">
<mask id="path-1-inside-1_1464_511" fill="white">
<path fill-rule="evenodd" clip-rule="evenodd" d="M100.909 5.29874C102.914 5.29874 104.539 3.53149 104.539 1.35148C104.539 0.8901 104.466 0.447208 104.332 0.0356445H117.604V78.9808H3.88641L3.88641 0.0356445L15.2226 0.0356445C15.0888 0.447137 15.0161 0.889942 15.0161 1.35123C15.0161 3.53124 16.641 5.29848 18.6454 5.29848C20.6498 5.29848 22.2747 3.53124 22.2747 1.35123C22.2747 0.889942 22.2019 0.447137 22.0682 0.0356445L35.7885 0.0356445C35.6547 0.447244 35.5819 0.89018 35.5819 1.35161C35.5819 3.53162 37.2068 5.29886 39.2112 5.29886C41.2156 5.29886 42.8405 3.53162 42.8405 1.35161C42.8405 0.89018 42.7677 0.447244 42.6339 0.0356445L56.3546 0.0356445C56.2209 0.447221 56.1481 0.890128 56.1481 1.35153C56.1481 3.53154 57.773 5.29878 59.7774 5.29878C61.7818 5.29878 63.4067 3.53154 63.4067 1.35153C63.4067 0.890128 63.3339 0.447221 63.2001 0.0356445H76.9208C76.787 0.447197 76.7142 0.890077 76.7142 1.35144C76.7142 3.53145 78.3391 5.2987 80.3435 5.2987C82.3479 5.2987 83.9728 3.53145 83.9728 1.35144C83.9728 0.890077 83.9 0.447197 83.7663 0.0356445H97.4866C97.3529 0.447208 97.2801 0.8901 97.2801 1.35148C97.2801 3.53149 98.905 5.29874 100.909 5.29874Z"/>
</mask>
<path fill-rule="evenodd" clip-rule="evenodd" d="M100.909 5.29874C102.914 5.29874 104.539 3.53149 104.539 1.35148C104.539 0.8901 104.466 0.447208 104.332 0.0356445H117.604V78.9808H3.88641L3.88641 0.0356445L15.2226 0.0356445C15.0888 0.447137 15.0161 0.889942 15.0161 1.35123C15.0161 3.53124 16.641 5.29848 18.6454 5.29848C20.6498 5.29848 22.2747 3.53124 22.2747 1.35123C22.2747 0.889942 22.2019 0.447137 22.0682 0.0356445L35.7885 0.0356445C35.6547 0.447244 35.5819 0.89018 35.5819 1.35161C35.5819 3.53162 37.2068 5.29886 39.2112 5.29886C41.2156 5.29886 42.8405 3.53162 42.8405 1.35161C42.8405 0.89018 42.7677 0.447244 42.6339 0.0356445L56.3546 0.0356445C56.2209 0.447221 56.1481 0.890128 56.1481 1.35153C56.1481 3.53154 57.773 5.29878 59.7774 5.29878C61.7818 5.29878 63.4067 3.53154 63.4067 1.35153C63.4067 0.890128 63.3339 0.447221 63.2001 0.0356445H76.9208C76.787 0.447197 76.7142 0.890077 76.7142 1.35144C76.7142 3.53145 78.3391 5.2987 80.3435 5.2987C82.3479 5.2987 83.9728 3.53145 83.9728 1.35144C83.9728 0.890077 83.9 0.447197 83.7663 0.0356445H97.4866C97.3529 0.447208 97.2801 0.8901 97.2801 1.35148C97.2801 3.53149 98.905 5.29874 100.909 5.29874Z" fill="#DCEDFF"/>
<path d="M104.332 0.0356445V-1.96436H101.579L102.43 0.653818L104.332 0.0356445ZM117.604 0.0356445H119.604V-1.96436H117.604V0.0356445ZM117.604 78.9808V80.9808H119.604V78.9808H117.604ZM3.88641 78.9808L1.88641 78.9808L1.88641 80.9808H3.88641V78.9808ZM3.88641 0.0356445L3.88641 -1.96436L1.88641 -1.96436L1.88641 0.0356445L3.88641 0.0356445ZM15.2226 0.0356445L17.1247 0.653696L17.9753 -1.96436L15.2226 -1.96436L15.2226 0.0356445ZM22.0682 0.0356445L22.0682 -1.96436L19.3154 -1.96436L20.1661 0.6537L22.0682 0.0356445ZM35.7885 0.0356445L37.6906 0.653881L38.5416 -1.96436L35.7885 -1.96436L35.7885 0.0356445ZM42.6339 0.0356445L42.6339 -1.96436L39.8809 -1.96436L40.7319 0.653881L42.6339 0.0356445ZM56.3546 0.0356445L58.2567 0.653833L59.1076 -1.96436L56.3546 -1.96436L56.3546 0.0356445ZM63.2001 0.0356445V-1.96436H60.4471L61.298 0.653833L63.2001 0.0356445ZM76.9208 0.0356445L78.8228 0.653801L79.6737 -1.96436H76.9208V0.0356445ZM83.7663 0.0356445V-1.96436H81.0133L81.8642 0.653801L83.7663 0.0356445ZM97.4866 0.0356445L99.3887 0.653818L100.24 -1.96436H97.4866V0.0356445ZM102.539 1.35148C102.539 2.58837 101.654 3.29874 100.909 3.29874V7.29874C104.173 7.29874 106.539 4.47461 106.539 1.35148H102.539ZM102.43 0.653818C102.499 0.866747 102.539 1.10108 102.539 1.35148H106.539C106.539 0.679124 106.433 0.0276694 106.234 -0.582529L102.43 0.653818ZM104.332 2.03564H117.604V-1.96436H104.332V2.03564ZM115.604 0.0356445V78.9808H119.604V0.0356445H115.604ZM117.604 76.9808H3.88641V80.9808H117.604V76.9808ZM5.88641 78.9808L5.88641 0.0356445L1.88641 0.0356445L1.88641 78.9808L5.88641 78.9808ZM3.88641 2.03564L15.2226 2.03564L15.2226 -1.96436L3.88641 -1.96436L3.88641 2.03564ZM13.3204 -0.582407C13.1222 0.0276884 13.0161 0.679014 13.0161 1.35123H17.0161C17.0161 1.10087 17.0555 0.866585 17.1247 0.653696L13.3204 -0.582407ZM13.0161 1.35123C13.0161 4.47436 15.3816 7.29848 18.6454 7.29848V3.29848C17.9004 3.29848 17.0161 2.58812 17.0161 1.35123H13.0161ZM18.6454 7.29848C21.9092 7.29848 24.2747 4.47436 24.2747 1.35123H20.2747C20.2747 2.58812 19.3904 3.29848 18.6454 3.29848V7.29848ZM24.2747 1.35123C24.2747 0.679017 24.1686 0.0276897 23.9703 -0.582411L20.1661 0.6537C20.2353 0.866584 20.2747 1.10087 20.2747 1.35123H24.2747ZM22.0682 2.03564L35.7885 2.03564L35.7885 -1.96436L22.0682 -1.96436L22.0682 2.03564ZM33.8865 -0.582592C33.6881 0.0276662 33.5819 0.679187 33.5819 1.35161H37.5819C37.5819 1.10117 37.6214 0.866822 37.6906 0.653881L33.8865 -0.582592ZM33.5819 1.35161C33.5819 4.47474 35.9474 7.29886 39.2112 7.29886V3.29886C38.4662 3.29886 37.5819 2.58849 37.5819 1.35161H33.5819ZM39.2112 7.29886C42.475 7.29886 44.8405 4.47474 44.8405 1.35161H40.8405C40.8405 2.5885 39.9562 3.29886 39.2112 3.29886V7.29886ZM44.8405 1.35161C44.8405 0.679193 44.7343 0.0276717 44.536 -0.582592L40.7319 0.653881C40.8011 0.866816 40.8405 1.10117 40.8405 1.35161H44.8405ZM42.6339 2.03564L56.3546 2.03564L56.3546 -1.96436L42.6339 -1.96436L42.6339 2.03564ZM54.4526 -0.582544C54.2543 0.0276736 54.1481 0.679149 54.1481 1.35153H58.1481C58.1481 1.10111 58.1875 0.866768 58.2567 0.653833L54.4526 -0.582544ZM54.1481 1.35153C54.1481 4.47466 56.5136 7.29878 59.7774 7.29878V3.29878C59.0324 3.29878 58.1481 2.58841 58.1481 1.35153H54.1481ZM59.7774 7.29878C63.0412 7.29878 65.4067 4.47466 65.4067 1.35153H61.4067C61.4067 2.58841 60.5224 3.29878 59.7774 3.29878V7.29878ZM65.4067 1.35153C65.4067 0.679149 65.3005 0.0276736 65.1022 -0.582544L61.298 0.653833C61.3672 0.866768 61.4067 1.10111 61.4067 1.35153H65.4067ZM63.2001 2.03564H76.9208V-1.96436H63.2001V2.03564ZM75.0187 -0.582512C74.8204 0.0276804 74.7142 0.679117 74.7142 1.35144H78.7142C78.7142 1.10104 78.7536 0.866714 78.8228 0.653801L75.0187 -0.582512ZM74.7142 1.35144C74.7142 4.47458 77.0797 7.2987 80.3435 7.2987V3.2987C79.5985 3.2987 78.7142 2.58833 78.7142 1.35144H74.7142ZM80.3435 7.2987C83.6073 7.2987 85.9728 4.47458 85.9728 1.35144H81.9728C81.9728 2.58833 81.0885 3.2987 80.3435 3.2987V7.2987ZM85.9728 1.35144C85.9728 0.679117 85.8667 0.0276804 85.6684 -0.582512L81.8642 0.653801C81.9334 0.866714 81.9728 1.10104 81.9728 1.35144H85.9728ZM83.7663 2.03564H97.4866V-1.96436H83.7663V2.03564ZM99.2801 1.35148C99.2801 1.10108 99.3195 0.866747 99.3887 0.653818L95.5846 -0.582529C95.3863 0.0276694 95.2801 0.679124 95.2801 1.35148H99.2801ZM100.909 3.29874C100.164 3.29874 99.2801 2.58837 99.2801 1.35148H95.2801C95.2801 4.47461 97.6456 7.29874 100.909 7.29874V3.29874Z" fill="black" mask="url(#path-1-inside-1_1464_511)"/>
<path d="M23.8021 70.5553L27.4219 71.8154L27.8258 55.7068L35.2659 60.8213L30.0188 72.7194L32.6157 73.6234L41.3477 65.4754L44.7964 73.4222L31.4872 75.4116L41.4376 85.7372L34.5052 90.2828L30.3588 77.1998L28.1019 80.7762L32.194 92.7446L21.9637 90.0257L24.4868 80.7872L16.8374 86.9203L11.7216 84.0372L17.8247 77.0502L6.79385 81.7019L9.35233 68.7314L17.3938 74.1363L13.654 61.7988L19.069 60.1556L19.811 72.0719L20.9511 63.6061L24.8119 59.3163L23.8021 70.5553Z" fill="#FF8D7C"/>
<path d="M32.6157 73.6234L30.0188 72.7194M32.6157 73.6234L31.4872 75.4116M32.6157 73.6234L41.3477 65.4754L44.7964 73.4222L31.4872 75.4116M27.4219 71.8154L22.2282 70.0074L19.811 72.0719M27.4219 71.8154L27.8258 55.7068L35.2659 60.8213L30.0188 72.7194M27.4219 71.8154L30.0188 72.7194M31.4872 75.4116L41.4376 85.7372L34.5052 90.2828L30.3588 77.1998M31.4872 75.4116L30.3588 77.1998M30.3588 77.1998L28.1019 80.7762M28.1019 80.7762L27.1517 82.282L24.4868 80.7872M28.1019 80.7762L32.194 92.7446L21.9637 90.0257L24.4868 80.7872M24.4868 80.7872L16.8374 86.9203L11.7216 84.0372L17.8247 77.0502M24.4868 80.7872L17.8247 77.0502M17.8247 77.0502L15.5053 75.7491L17.3938 74.1363M17.8247 77.0502L6.79385 81.7019L9.35233 68.7314L17.3938 74.1363M17.3938 74.1363L13.654 61.7988L19.069 60.1556L19.811 72.0719M17.3938 74.1363L19.811 72.0719M19.811 72.0719L20.9511 63.6061L24.8119 59.3163L23.7941 70.6453" stroke="black" stroke-width="2"/>
</svg>
