<svg width="314" height="135" viewBox="0 0 314 135" fill="none" xmlns="http://www.w3.org/2000/svg">
<mask id="path-1-inside-1_41_7597" fill="white">
<path fill-rule="evenodd" clip-rule="evenodd" d="M247.004 4.44598L215.653 6.56679C215.676 6.72494 215.697 6.88433 215.715 7.04491C216.373 13.059 212.405 18.46 206.851 19.1084C201.297 19.7567 196.26 15.4069 195.601 9.39278C195.547 8.89963 195.524 8.4106 195.531 7.92798L164.142 10.0514C164.166 10.2095 164.186 10.3689 164.204 10.5295C164.863 16.5436 160.894 21.9446 155.34 22.593C149.786 23.2413 144.749 18.8915 144.09 12.8774C144.036 12.3842 144.014 11.8952 144.02 11.4125L112.49 13.5454C112.615 14.0513 112.708 14.5726 112.767 15.1071C113.426 21.1212 109.457 26.5222 103.903 27.1706C98.3487 27.8189 93.3121 23.4691 92.6534 17.4549C92.5578 16.582 92.5597 15.722 92.6497 14.8876L60.9794 17.03C61.1044 17.5358 61.1975 18.0572 61.2561 18.5916C61.9148 24.6058 57.9463 30.0068 52.3921 30.6551C46.8379 31.3035 41.8013 26.9536 41.1426 20.9395C41.047 20.0666 41.0489 19.2066 41.1389 18.3722L0.626953 21.1127L8.3187 134.817L313.365 114.181L305.673 0.477188L267.203 3.07953C267.539 8.84377 263.653 13.9044 258.288 14.5306C252.734 15.179 247.697 10.8291 247.039 4.81501C247.025 4.69173 247.014 4.56871 247.004 4.44598Z"/>
</mask>
<path fill-rule="evenodd" clip-rule="evenodd" d="M247.004 4.44598L215.653 6.56679C215.676 6.72494 215.697 6.88433 215.715 7.04491C216.373 13.059 212.405 18.46 206.851 19.1084C201.297 19.7567 196.26 15.4069 195.601 9.39278C195.547 8.89963 195.524 8.4106 195.531 7.92798L164.142 10.0514C164.166 10.2095 164.186 10.3689 164.204 10.5295C164.863 16.5436 160.894 21.9446 155.34 22.593C149.786 23.2413 144.749 18.8915 144.09 12.8774C144.036 12.3842 144.014 11.8952 144.02 11.4125L112.49 13.5454C112.615 14.0513 112.708 14.5726 112.767 15.1071C113.426 21.1212 109.457 26.5222 103.903 27.1706C98.3487 27.8189 93.3121 23.4691 92.6534 17.4549C92.5578 16.582 92.5597 15.722 92.6497 14.8876L60.9794 17.03C61.1044 17.5358 61.1975 18.0572 61.2561 18.5916C61.9148 24.6058 57.9463 30.0068 52.3921 30.6551C46.8379 31.3035 41.8013 26.9536 41.1426 20.9395C41.047 20.0666 41.0489 19.2066 41.1389 18.3722L0.626953 21.1127L8.3187 134.817L313.365 114.181L305.673 0.477188L267.203 3.07953C267.539 8.84377 263.653 13.9044 258.288 14.5306C252.734 15.179 247.697 10.8291 247.039 4.81501C247.025 4.69173 247.014 4.56871 247.004 4.44598Z" fill="#DCEDFF"/>
<path d="M215.653 6.56679L215.45 3.57363L212.202 3.79334L212.686 7.0125L215.653 6.56679ZM247.004 4.44598L249.995 4.21123L249.762 1.25251L246.801 1.45282L247.004 4.44598ZM215.715 7.04491L218.697 6.71828L218.697 6.71821L215.715 7.04491ZM195.601 9.39278L198.583 9.06614L198.583 9.06611L195.601 9.39278ZM195.531 7.92798L198.531 7.96859L198.575 4.71522L195.328 4.93482L195.531 7.92798ZM164.142 10.0514L163.939 7.05819L160.692 7.2779L161.175 10.497L164.142 10.0514ZM164.204 10.5295L167.186 10.2028L167.186 10.2028L164.204 10.5295ZM144.09 12.8774L147.073 12.5507L147.073 12.5507L144.09 12.8774ZM144.02 11.4125L147.02 11.4531L147.064 8.19978L143.818 8.41938L144.02 11.4125ZM112.49 13.5454L112.288 10.5523L108.72 10.7936L109.578 14.265L112.49 13.5454ZM112.767 15.1071L109.785 15.4337L109.785 15.4337L112.767 15.1071ZM103.903 27.1706L103.555 24.1908L103.903 27.1706ZM92.6534 17.4549L89.6712 17.7816L89.6712 17.7816L92.6534 17.4549ZM92.6497 14.8876L95.6324 15.2095L96.0162 11.653L92.4472 11.8944L92.6497 14.8876ZM60.9794 17.03L60.777 14.0368L57.2093 14.2782L58.067 17.7496L60.9794 17.03ZM61.2561 18.5916L64.2382 18.265L64.2382 18.265L61.2561 18.5916ZM41.1426 20.9395L38.1604 21.2661L38.1604 21.2662L41.1426 20.9395ZM41.1389 18.3722L44.1216 18.6941L44.5054 15.1376L40.9364 15.379L41.1389 18.3722ZM0.626953 21.1127L0.424474 18.1195L-2.56868 18.322L-2.36621 21.3151L0.626953 21.1127ZM8.3187 134.817L5.32554 135.019L5.52801 138.012L8.52117 137.81L8.3187 134.817ZM313.365 114.181L313.567 117.174L316.56 116.972L316.358 113.979L313.365 114.181ZM305.673 0.477188L308.666 0.274709L308.464 -2.71845L305.47 -2.51597L305.673 0.477188ZM267.203 3.07953L267.001 0.0863753L264.036 0.286947L264.208 3.25367L267.203 3.07953ZM258.288 14.5306L258.636 17.5104L258.288 14.5306ZM247.039 4.81501L250.021 4.48837L250.021 4.48823L247.039 4.81501ZM215.855 9.55995L247.206 7.43913L246.801 1.45282L215.45 3.57363L215.855 9.55995ZM218.697 6.71821C218.675 6.51791 218.649 6.31884 218.619 6.12109L212.686 7.0125C212.704 7.13103 212.719 7.25075 212.733 7.37162L218.697 6.71821ZM207.199 22.0882C214.605 21.2237 219.511 14.148 218.697 6.71828L212.733 7.37155C213.236 11.9701 210.205 15.6964 206.503 16.1286L207.199 22.0882ZM192.619 9.71943C193.434 17.1609 199.771 22.9551 207.199 22.0882L206.503 16.1286C202.822 16.5583 199.086 13.6529 198.583 9.06614L192.619 9.71943ZM192.531 7.88736C192.523 8.49234 192.552 9.10404 192.619 9.71946L198.583 9.06611C198.543 8.69523 198.526 8.32886 198.531 7.96859L192.531 7.88736ZM164.344 13.0445L195.733 10.9211L195.328 4.93482L163.939 7.05819L164.344 13.0445ZM167.186 10.2028C167.164 10.0025 167.138 9.80341 167.109 9.60565L161.175 10.497C161.193 10.6156 161.209 10.7353 161.222 10.8562L167.186 10.2028ZM155.688 25.5727C163.094 24.7082 168 17.6326 167.186 10.2028L161.222 10.8561C161.725 15.4546 158.695 19.181 154.992 19.6132L155.688 25.5727ZM141.108 13.204C141.923 20.6455 148.261 26.4397 155.688 25.5727L154.992 19.6132C151.311 20.0429 147.575 17.1375 147.073 12.5507L141.108 13.204ZM141.02 11.3719C141.012 11.9769 141.041 12.5886 141.108 13.204L147.073 12.5507C147.032 12.1798 147.015 11.8134 147.02 11.4531L141.02 11.3719ZM112.693 16.5386L144.223 14.4057L143.818 8.41938L112.288 10.5523L112.693 16.5386ZM115.749 14.7804C115.676 14.1135 115.56 13.4609 115.403 12.8259L109.578 14.265C109.671 14.6417 109.741 15.0317 109.785 15.4337L115.749 14.7804ZM104.251 30.1503C111.657 29.2858 116.563 22.2102 115.749 14.7804L109.785 15.4337C110.288 20.0322 107.257 23.7586 103.555 24.1908L104.251 30.1503ZM89.6712 17.7816C90.4863 25.2231 96.8236 31.0173 104.251 30.1503L103.555 24.1908C99.8738 24.6205 96.138 21.7151 95.6356 17.1283L89.6712 17.7816ZM89.667 14.5657C89.5538 15.6146 89.5519 16.6921 89.6712 17.7816L95.6356 17.1283C95.5637 16.472 95.5655 15.8294 95.6324 15.2095L89.667 14.5657ZM61.1819 20.0232L92.8522 17.8808L92.4472 11.8944L60.777 14.0368L61.1819 20.0232ZM64.2382 18.265C64.1652 17.5981 64.0488 16.9455 63.8919 16.3104L58.067 17.7496C58.1601 18.1262 58.2299 18.5163 58.2739 18.9183L64.2382 18.265ZM52.7399 33.6349C60.1458 32.7704 65.052 25.6948 64.2382 18.265L58.2739 18.9183C58.7776 23.5168 55.7467 27.2432 52.0443 27.6754L52.7399 33.6349ZM38.1604 21.2662C38.9755 28.7077 45.3128 34.5019 52.7399 33.6349L52.0443 27.6754C48.363 28.1051 44.6272 25.1996 44.1248 20.6129L38.1604 21.2662ZM38.1562 18.0503C38.043 19.0992 38.0411 20.1766 38.1604 21.2661L44.1248 20.6129C44.0529 19.9565 44.0547 19.314 44.1216 18.6941L38.1562 18.0503ZM0.829432 24.1058L41.3414 21.3653L40.9364 15.379L0.424474 18.1195L0.829432 24.1058ZM11.3119 134.614L3.62011 20.9102L-2.36621 21.3151L5.32554 135.019L11.3119 134.614ZM313.162 111.188L8.11622 131.823L8.52117 137.81L313.567 117.174L313.162 111.188ZM302.68 0.679667L310.371 114.384L316.358 113.979L308.666 0.274709L302.68 0.679667ZM267.406 6.07269L305.875 3.47035L305.47 -2.51597L267.001 0.0863753L267.406 6.07269ZM264.208 3.25367C264.464 7.64867 261.519 11.1331 257.94 11.5509L258.636 17.5104C265.787 16.6757 270.613 10.0389 270.198 2.9054L264.208 3.25367ZM257.94 11.5509C254.259 11.9806 250.523 9.07513 250.021 4.48837L244.056 5.14165C244.872 12.5832 251.209 18.3774 258.636 17.5104L257.94 11.5509ZM250.021 4.48823C250.011 4.39549 250.002 4.30315 249.995 4.21123L244.013 4.68072C244.025 4.83427 244.04 4.98797 244.056 5.14179L250.021 4.48823Z" fill="black" mask="url(#path-1-inside-1_41_7597)"/>
</svg>
