<svg width="127" height="69" viewBox="0 0 127 69" fill="none" xmlns="http://www.w3.org/2000/svg">
<mask id="path-1-inside-1_336_1438" fill="white">
<path fill-rule="evenodd" clip-rule="evenodd" d="M99.0355 1.59532L86.4333 2.44782C86.4429 2.51143 86.4512 2.57554 86.4583 2.64012C86.723 5.0576 85.1278 7.22863 82.8952 7.48925C80.6626 7.74986 78.6381 6.00137 78.3733 3.58389C78.3516 3.38562 78.3424 3.18901 78.345 2.99497L65.7276 3.8485C65.7372 3.91209 65.7455 3.97619 65.7526 4.04076C66.0174 6.45824 64.4221 8.62927 62.1895 8.88988C59.9569 9.15049 57.9324 7.40201 57.6676 4.98452C57.6459 4.78627 57.6367 4.58967 57.6393 4.39565L44.9654 5.25301C45.0156 5.45637 45.0531 5.66597 45.0766 5.88085C45.3414 8.29833 43.7462 10.4694 41.5136 10.73C39.281 10.9906 37.2564 9.24209 36.9916 6.82461C36.9532 6.47369 36.954 6.12795 36.9902 5.7925L24.2598 6.65368C24.31 6.85704 24.3474 7.06662 24.371 7.28148C24.6358 9.69896 23.0405 11.87 20.8079 12.1306C18.5753 12.3912 16.5508 10.6427 16.286 8.22525C16.2476 7.87434 16.2483 7.52862 16.2845 7.19318L0 8.29478L4.04741 68.126L126.666 59.8312L122.618 0L107.155 1.04606C107.29 3.36305 105.728 5.39718 103.571 5.64891C101.339 5.90953 99.3142 4.16104 99.0494 1.74356C99.044 1.69404 99.0393 1.64462 99.0355 1.59532Z"/>
</mask>
<path fill-rule="evenodd" clip-rule="evenodd" d="M99.0355 1.59532L86.4333 2.44782C86.4429 2.51143 86.4512 2.57554 86.4583 2.64012C86.723 5.0576 85.1278 7.22863 82.8952 7.48925C80.6626 7.74986 78.6381 6.00137 78.3733 3.58389C78.3516 3.38562 78.3424 3.18901 78.345 2.99497L65.7276 3.8485C65.7372 3.91209 65.7455 3.97619 65.7526 4.04076C66.0174 6.45824 64.4221 8.62927 62.1895 8.88988C59.9569 9.15049 57.9324 7.40201 57.6676 4.98452C57.6459 4.78627 57.6367 4.58967 57.6393 4.39565L44.9654 5.25301C45.0156 5.45637 45.0531 5.66597 45.0766 5.88085C45.3414 8.29833 43.7462 10.4694 41.5136 10.73C39.281 10.9906 37.2564 9.24209 36.9916 6.82461C36.9532 6.47369 36.954 6.12795 36.9902 5.7925L24.2598 6.65368C24.31 6.85704 24.3474 7.06662 24.371 7.28148C24.6358 9.69896 23.0405 11.87 20.8079 12.1306C18.5753 12.3912 16.5508 10.6427 16.286 8.22525C16.2476 7.87434 16.2483 7.52862 16.2845 7.19318L0 8.29478L4.04741 68.126L126.666 59.8312L122.618 0L107.155 1.04606C107.29 3.36305 105.728 5.39718 103.571 5.64891C101.339 5.90953 99.3142 4.16104 99.0494 1.74356C99.044 1.69404 99.0393 1.64462 99.0355 1.59532Z" fill="#DCEDFF"/>
<path d="M86.4333 2.44782L86.2983 0.45238L84.1329 0.59886L84.4555 2.74507L86.4333 2.44782ZM99.0355 1.59532L101.029 1.43857L100.874 -0.533641L98.9005 -0.40012L99.0355 1.59532ZM86.4583 2.64012L84.4701 2.85783V2.85788L86.4583 2.64012ZM78.3733 3.58389L80.3614 3.36613L80.3614 3.36609L78.3733 3.58389ZM78.345 2.99497L80.3448 3.0221L80.3743 0.853125L78.21 0.999529L78.345 2.99497ZM65.7276 3.8485L65.5926 1.85306L63.4274 1.99953L63.7498 4.14558L65.7276 3.8485ZM65.7526 4.04076L63.7645 4.25851V4.25851L65.7526 4.04076ZM62.1895 8.88988L61.9576 6.90337L62.1895 8.88988ZM57.6676 4.98452L55.6795 5.20227L55.6795 5.20228L57.6676 4.98452ZM57.6393 4.39565L59.6391 4.42274L59.6685 2.25381L57.5043 2.40021L57.6393 4.39565ZM44.9654 5.25301L44.8304 3.25757L42.4519 3.41846L43.0238 5.73277L44.9654 5.25301ZM45.0766 5.88085L47.0647 5.66308V5.66308L45.0766 5.88085ZM41.5136 10.73L41.2817 8.74346L41.5136 10.73ZM36.9916 6.82461L35.0035 7.04237V7.04237L36.9916 6.82461ZM36.9902 5.7925L38.9786 6.00714L39.2346 3.63611L36.8552 3.79707L36.9902 5.7925ZM24.2598 6.65368L24.1248 4.65824L21.7463 4.81914L22.3182 7.13344L24.2598 6.65368ZM24.371 7.28148L26.3591 7.06372V7.06372L24.371 7.28148ZM20.8079 12.1306L20.5761 10.1441L20.8079 12.1306ZM16.286 8.22525L14.2979 8.443L14.2979 8.44301L16.286 8.22525ZM16.2845 7.19318L18.273 7.40782L18.5289 5.03679L16.1496 5.19774L16.2845 7.19318ZM0 8.29478L-0.134986 6.29935L-2.13043 6.43433L-1.99544 8.42977L0 8.29478ZM4.04741 68.126L2.05197 68.261L2.18696 70.2565L4.1824 70.1215L4.04741 68.126ZM126.666 59.8312L126.801 61.8267L128.796 61.6917L128.661 59.6963L126.666 59.8312ZM122.618 0L124.614 -0.134986L124.479 -2.13043L122.483 -1.99544L122.618 0ZM107.155 1.04606L107.02 -0.949383L105.043 -0.815673L105.158 1.1621L107.155 1.04606ZM103.571 5.64891L103.803 7.63542L103.571 5.64891ZM99.0494 1.74356L101.038 1.5258L101.037 1.52578L99.0494 1.74356ZM86.5683 4.44326L99.1704 3.59076L98.9005 -0.40012L86.2983 0.45238L86.5683 4.44326ZM88.4464 2.42242C88.4364 2.33124 88.4246 2.24061 88.4111 2.15057L84.4555 2.74507C84.4611 2.78224 84.466 2.81983 84.4701 2.85783L88.4464 2.42242ZM83.1271 9.47576C86.5942 9.07104 88.8145 5.78359 88.4464 2.42237L84.4701 2.85788C84.6316 4.33162 83.6614 5.38622 82.6633 5.50273L83.1271 9.47576ZM76.3852 3.80165C76.7542 7.17072 79.6459 9.88212 83.1271 9.47576L82.6633 5.50273C81.6793 5.6176 80.522 4.83203 80.3614 3.36613L76.3852 3.80165ZM76.3452 2.96784C76.3415 3.24345 76.3545 3.52187 76.3852 3.80169L80.3614 3.36609C80.3486 3.24937 80.3433 3.13456 80.3448 3.0221L76.3452 2.96784ZM65.8626 5.84394L78.48 4.99041L78.21 0.999529L65.5926 1.85306L65.8626 5.84394ZM67.7407 3.823C67.7307 3.73184 67.7189 3.64129 67.7054 3.55141L63.7498 4.14558C63.7554 4.18289 63.7603 4.22054 63.7645 4.25851L67.7407 3.823ZM62.4214 10.8764C65.8885 10.4717 68.1088 7.18423 67.7407 3.823L63.7645 4.25851C63.9259 5.73225 62.9557 6.78686 61.9576 6.90337L62.4214 10.8764ZM55.6795 5.20228C56.0485 8.57135 58.9402 11.2828 62.4214 10.8764L61.9576 6.90337C60.9736 7.01823 59.8163 6.23266 59.6557 4.76676L55.6795 5.20228ZM55.6395 4.36856C55.6358 4.64416 55.6489 4.92253 55.6795 5.20227L59.6557 4.76678C59.6429 4.65001 59.6376 4.53518 59.6391 4.42274L55.6395 4.36856ZM45.1004 7.24845L57.7743 6.39109L57.5043 2.40021L44.8304 3.25757L45.1004 7.24845ZM47.0647 5.66308C47.0315 5.35986 46.9785 5.06274 46.907 4.77324L43.0238 5.73277C43.0527 5.85001 43.0746 5.97208 43.0885 6.09861L47.0647 5.66308ZM41.7455 12.7165C45.2126 12.3118 47.4329 9.02432 47.0647 5.66308L43.0885 6.0986C43.2499 7.57234 42.2798 8.62695 41.2817 8.74346L41.7455 12.7165ZM35.0035 7.04237C35.3726 10.4114 38.2643 13.1228 41.7455 12.7165L41.2817 8.74346C40.2977 8.85832 39.1403 8.07275 38.9798 6.60685L35.0035 7.04237ZM35.0017 5.57787C34.9501 6.05632 34.9493 6.54703 35.0035 7.04237L38.9798 6.60685C38.9571 6.40034 38.9579 6.19959 38.9786 6.00714L35.0017 5.57787ZM24.3947 8.64912L37.1252 7.78794L36.8552 3.79707L24.1248 4.65824L24.3947 8.64912ZM26.3591 7.06372C26.3259 6.76053 26.2729 6.46342 26.2014 6.17392L22.3182 7.13344C22.3471 7.25065 22.369 7.3727 22.3829 7.49924L26.3591 7.06372ZM21.0398 14.1171C24.5069 13.7124 26.7272 10.425 26.3591 7.06372L22.3829 7.49924C22.5443 8.97297 21.5742 10.0276 20.5761 10.1441L21.0398 14.1171ZM14.2979 8.44301C14.6669 11.8121 17.5586 14.5235 21.0398 14.1171L20.5761 10.1441C19.5921 10.259 18.4347 9.47339 18.2741 8.00749L14.2979 8.44301ZM14.2961 6.97855C14.2445 7.457 14.2437 7.9477 14.2979 8.443L18.2741 8.00749C18.2515 7.80097 18.2522 7.60023 18.273 7.40782L14.2961 6.97855ZM0.134986 10.2902L16.4195 9.18862L16.1496 5.19774L-0.134986 6.29935L0.134986 10.2902ZM6.04285 67.9911L1.99544 8.1598L-1.99544 8.42977L2.05197 68.261L6.04285 67.9911ZM126.531 57.8358L3.91243 66.1306L4.1824 70.1215L126.801 61.8267L126.531 57.8358ZM120.623 0.134986L124.67 59.9662L128.661 59.6963L124.614 -0.134986L120.623 0.134986ZM107.29 3.0415L122.753 1.99544L122.483 -1.99544L107.02 -0.949383L107.29 3.0415ZM105.158 1.1621C105.24 2.5663 104.305 3.54965 103.339 3.6624L103.803 7.63542C107.15 7.24472 109.339 4.1598 109.152 0.930016L105.158 1.1621ZM103.339 3.6624C102.355 3.77726 101.198 2.9917 101.038 1.5258L97.0613 1.96131C97.4303 5.33039 100.322 8.04179 103.803 7.63542L103.339 3.6624ZM101.037 1.52578C101.034 1.49674 101.032 1.46767 101.029 1.43857L97.0416 1.75207C97.0471 1.82156 97.0536 1.89133 97.0613 1.96133L101.037 1.52578Z" fill="black" mask="url(#path-1-inside-1_336_1438)"/>
</svg>
