<svg width="220" height="582" viewBox="0 0 220 582" fill="none" xmlns="http://www.w3.org/2000/svg">
<path d="M50.1272 566.996L55.6298 532.894L82.0319 530.413L82.9193 540.828C82.9193 540.828 96.6027 545.562 105.445 544.463C114.338 543.358 117.702 533.638 126.499 535.341C134.891 536.965 141.505 541.644 142.363 550.42C143.082 557.766 138.97 563.155 129.252 564.034C96.5042 566.996 50.1272 566.996 50.1272 566.996Z" fill="white" stroke="black" stroke-width="2"/>
<path d="M89.7389 428.934L91.8216 529.424L43.5552 534.038L43.5552 436.113L15.3503 397.767L8.37833 415.514L-5.56576 436.113L-5.56576 300.793L40.0692 299.208L89.7389 428.934Z" fill="#AAD2FD"/>
<path d="M40.0692 299.208L89.7389 428.934L91.8216 529.424L43.5552 534.038L43.5552 436.113L15.3503 397.767M40.0692 299.208L15.3503 397.767M40.0692 299.208L-5.56576 300.793L-5.56576 436.113L8.37833 415.514L15.3503 397.767" stroke="black" stroke-width="2"/>
<path d="M57.0601 302.155C49.7866 264.756 46.4654 261.293 41.9053 230.843C35.455 187.773 40.3194 186.529 30.8122 131.958C27.3335 111.991 -5.23914 101.532 -5.23914 101.532V335.75C-5.23914 335.75 64.3336 339.554 57.0601 302.155Z" fill="#DCEDFF" stroke="black" stroke-width="2"/>
<path d="M84.9138 212.313C84.9138 212.313 44.2522 145.52 27.475 122.341C5.67604 92.2254 -14.6263 183.304 17.0289 212.313C36.6092 230.256 79.9383 260.46 79.9383 260.46L165.516 217.958L148.268 190.397L84.9138 212.313Z" fill="#DCEDFF" stroke="black" stroke-width="2"/>
<path d="M190.28 158.82C181.659 163.255 176.018 172.325 172.192 180.216C169.293 186.197 166.573 189.622 160.716 192.842C157.067 194.848 151.472 195.683 151.472 195.683L161.991 212.412C161.991 212.412 166.583 208.608 170.598 207.046C179.524 203.574 187.813 202.311 187.813 202.311C187.813 202.311 209.171 198.208 213.634 186.845C216.889 178.556 214.85 156.706 211.347 148.84C205.551 161.091 198.041 178.039 185.475 182.474C175.777 185.897 199.178 154.242 190.28 158.82Z" fill="white" stroke="black" stroke-width="2"/>
<path d="M11.497 87.9317C10.6338 95.9863 11.497 108.26 11.497 108.26L-5.23914 100.997V76.7682V12.9026C-5.23914 12.9026 8.102 1.62551 18.4153 1.0754C29.9767 0.458733 39.9191 3.62117 49.0922 10.6851C55.6067 15.7016 61.1529 21.3972 62.7675 29.4593C66.6276 48.7337 62.8603 68.3151 55.3755 87.9317C48.353 106.336 18.8961 91.4242 11.497 87.9317Z" fill="white"/>
<path d="M11.497 87.9317C10.6338 95.9863 11.497 108.26 11.497 108.26L-5.23914 100.997V76.7682M11.497 87.9317C18.8961 91.4242 48.353 106.336 55.3755 87.9317C62.8603 68.3151 66.6276 48.7337 62.7675 29.4593C61.1529 21.3972 55.6067 15.7016 49.0922 10.6851C39.9191 3.62117 29.9767 0.458733 18.4153 1.0754C8.102 1.62551 -5.23914 12.9026 -5.23914 12.9026V76.7682M11.497 87.9317C4.09789 84.4392 -5.23914 76.7682 -5.23914 76.7682" stroke="black" stroke-width="2"/>
<path d="M204.612 134.425L218 134.425L193.606 186.604L179.562 186.604L204.612 134.425Z" fill="#DCEDFF" stroke="black" stroke-width="2"/>
</svg>
