<svg width="180" height="112" viewBox="0 0 180 112" fill="none" xmlns="http://www.w3.org/2000/svg">
<path d="M178.121 23.5457V1.22803H52.846V80.9339H70.4005V92.4913H52.846V110.425H178.121V37.2566C178.121 37.2566 94.2369 45.5667 81.1726 39.4868C75.5284 36.8602 70.4005 17.6888 81.1726 23.5457C101.751 34.7345 178.121 23.5457 178.121 23.5457Z" fill="white" stroke="black" stroke-width="2"/>
<path d="M126.826 23.5457V1.22803H1.55066V80.9339H19.1051V92.4913H1.55066V110.425H126.826V41.1595C126.826 41.1595 42.9415 45.5667 29.8772 39.4868C24.2331 36.8602 20.608 11.5404 31.3801 17.3972C51.9587 28.586 126.826 23.5457 126.826 23.5457Z" fill="white" stroke="black" stroke-width="2"/>
<path d="M139.092 23.5457V1.22803H13.8169V80.9339H31.3714V92.4913H13.8169V110.425H139.092V41.1595C139.092 41.1595 55.2077 45.5667 42.1434 39.4868C36.4993 36.8602 31.3714 8.75257 42.1434 14.6094C62.7221 25.7982 139.092 23.5457 139.092 23.5457Z" fill="white" stroke="black" stroke-width="2"/>
<path d="M165.297 25.2031V1.22803H40.0222V80.9339H57.5766V92.4913H40.0222V110.425H165.297V38.3717C165.297 38.3717 81.413 45.5667 68.3487 39.4868C62.7046 36.8602 57.5766 17.6888 68.3487 23.5457C88.9274 34.7345 165.297 25.2031 165.297 25.2031Z" fill="white" stroke="black" stroke-width="2"/>
<path d="M153.031 26.3182V1.22803H27.7558V80.9339H45.3103V92.4913H27.7558V110.425H153.031V39.4868C153.031 39.4868 69.1466 45.5667 56.0823 39.4868C50.4382 36.8602 45.3103 17.6888 56.0823 23.5457C76.661 34.7345 153.031 26.3182 153.031 26.3182Z" fill="white" stroke="black" stroke-width="2"/>
<circle cx="77.3303" cy="11.9468" r="2.00976" fill="black"/>
<circle cx="134.273" cy="11.9468" r="2.00976" fill="black"/>
</svg>
